<svg viewBox="0 0 200 200" xmlns="http://www.w3.org/2000/svg">
  <!-- Fondo circular degradado -->
  <defs>
    <linearGradient id="grad1" x1="0%" y1="0%" x2="100%" y2="100%">
      <stop offset="0%" style="stop-color:#667eea;stop-opacity:1" />
      <stop offset="100%" style="stop-color:#764ba2;stop-opacity:1" />
    </linearGradient>
  </defs>
  
  <!-- Círculo de fondo -->
  <circle cx="100" cy="100" r="95" fill="url(#grad1)"/>
  
  <!-- Hoja 1 (arriba izquierda) -->
  <path d="M 80 60 Q 70 80 75 100 Q 80 85 85 65 Z" fill="#51cf66" opacity="0.9"/>
  
  <!-- Hoja 2 (arriba derecha) -->
  <path d="M 120 60 Q 130 80 125 100 Q 120 85 115 65 Z" fill="#51cf66" opacity="0.9"/>
  
  <!-- Manzana roja (centro) -->
  <circle cx="100" cy="95" r="25" fill="#ff6b6b"/>
  <ellipse cx="100" cy="70" rx="8" ry="12" fill="#51cf66"/>
  
  <!-- Brillo en la manzana -->
  <ellipse cx="90" cy="85" rx="8" ry="12" fill="#ff8787" opacity="0.6"/>
  
  <!-- Hoja 3 (abajo izquierda) -->
  <path d="M 70 130 Q 60 150 65 170 Q 70 155 75 135 Z" fill="#51cf66" opacity="0.8"/>
  
  <!-- Hoja 4 (abajo derecha) -->
  <path d="M 130 130 Q 140 150 135 170 Q 130 155 125 135 Z" fill="#51cf66" opacity="0.8"/>
  
  <!-- Checkmark -->
  <path d="M 105 105 L 110 115 L 120 100" stroke="white" stroke-width="3" fill="none" stroke-linecap="round" stroke-linejoin="round"/>
</svg>
